<mxfile host="app.diagrams.net" modified="2022-06-25T07:06:29.917Z" agent="5.0 (Windows NT 10.0; Win64; x64) AppleWebKit/537.36 (KHTML, like Gecko) Chrome/102.0.0.0 Safari/537.36" etag="ZtawHV8u8Ql-VfphEagT" version="20.0.3" type="github">
  <diagram id="HFGeHdatXfkphmjFKaYW" name="Page-1">
    <mxGraphModel dx="1140" dy="689" grid="1" gridSize="10" guides="1" tooltips="1" connect="1" arrows="1" fold="1" page="1" pageScale="1" pageWidth="827" pageHeight="1169" math="0" shadow="0">
      <root>
        <mxCell id="0" />
        <mxCell id="1" parent="0" />
        <mxCell id="GIQCZvKfJBbnQXecQLjJ-1" value="&lt;font style=&quot;font-size: 16px;&quot;&gt;国家资本主义&lt;/font&gt;" style="rounded=1;whiteSpace=wrap;html=1;" vertex="1" parent="1">
          <mxGeometry y="270" width="120" height="60" as="geometry" />
        </mxCell>
        <mxCell id="GIQCZvKfJBbnQXecQLjJ-2" value="初级国家资本主义：&lt;br&gt;加工订货、统购包销、经销代销" style="rounded=1;whiteSpace=wrap;html=1;fontSize=16;" vertex="1" parent="1">
          <mxGeometry x="200" y="120" width="240" height="80" as="geometry" />
        </mxCell>
        <mxCell id="GIQCZvKfJBbnQXecQLjJ-3" value="高级国家资本主义：&lt;br&gt;公私合营" style="rounded=1;whiteSpace=wrap;html=1;fontSize=16;" vertex="1" parent="1">
          <mxGeometry x="200" y="360" width="240" height="80" as="geometry" />
        </mxCell>
      </root>
    </mxGraphModel>
  </diagram>
</mxfile>
